<svg width="26" height="26" viewBox="0 0 26 26" fill="none" xmlns="http://www.w3.org/2000/svg">
  <g clip-path="url(#clip0)">
    <path d="M25.6 13.2586C25.6 12.284 25.5141 11.5668 25.3298 10.8237H13V15.2839H20.2156C20.07 16.3886 19.342 18.0582 17.7675 19.1652L17.7455 19.3137L21.158 21.9278L21.3948 21.9516C23.8225 19.7817 25.6 16.803 25.6 13.2586Z" fill="#4285F4"/>
    <path d="M13 26C16.51 26 19.4084 24.8541 21.3948 21.9516L17.7675 19.1652C16.7551 19.8766 15.3724 20.356 13 20.356C9.57086 20.356 6.69012 18.1862 5.66442 15.1538L5.52383 15.1654L1.96837 17.8727L1.92188 18.006C3.89535 22.0277 8.10143 26 13 26Z" fill="#34A853"/>
    <path d="M5.66443 15.1538C5.39463 14.4107 5.23844 13.6145 5.23844 12.7955C5.23844 11.9765 5.39463 11.1803 5.65008 10.4372L5.64243 10.2777L2.04078 7.52417L1.92189 7.58502C1.14903 9.18538 0.700012 10.9459 0.700012 12.7955C0.700012 14.6451 1.14903 16.4056 1.92189 18.006L5.66443 15.1538Z" fill="#FBBC05"/>
    <path d="M13 5.23563C15.7351 5.23563 17.5814 6.41909 18.6209 7.36916L21.4903 4.69518C19.3937 2.71969 16.51 1.5 13 1.5C8.10143 1.5 3.89535 5.47228 1.92188 9.49402L5.65007 10.4372C6.69012 7.40482 9.57086 5.23563 13 5.23563Z" fill="#EA4335"/>
  </g>
  <defs>
    <clipPath id="clip0">
      <rect width="24.9" height="24.9" fill="white" transform="translate(0.700012 0.75)"/>
    </clipPath>
  </defs>
</svg>
